<?xml version="1.0" encoding="UTF-8" standalone="no"?>
<svg
   version="1.1"
   width="62"
   height="18"
   viewBox="0 0 621.73932 186.53487"
   preserveAspectRatio="xMidYMid"
   id="svg21"
   sodipodi:docname="blox-logo-dark.svg"
   inkscape:version="1.3.2 (091e20e, 2023-11-25)"
   inkscape:export-filename="../../../../brand/logo/blox-logo-white-vertical-500.png"
   inkscape:export-xdpi="1513.3021"
   inkscape:export-ydpi="1513.3021"
   xmlns:inkscape="http://www.inkscape.org/namespaces/inkscape"
   xmlns:sodipodi="http://sodipodi.sourceforge.net/DTD/sodipodi-0.dtd"
   xmlns="http://www.w3.org/2000/svg"
   xmlns:svg="http://www.w3.org/2000/svg">
  <sodipodi:namedview
     id="namedview1"
     pagecolor="#ffffff"
     bordercolor="#666666"
     borderopacity="1.0"
     inkscape:showpageshadow="2"
     inkscape:pageopacity="0.0"
     inkscape:pagecheckerboard="0"
     inkscape:deskcolor="#d1d1d1"
     inkscape:zoom="10.806486"
     inkscape:cx="57.049072"
     inkscape:cy="12.538766"
     inkscape:window-width="1920"
     inkscape:window-height="1080"
     inkscape:window-x="0"
     inkscape:window-y="0"
     inkscape:window-maximized="0"
     inkscape:current-layer="svg"
     showguides="true">
    <sodipodi:guide
       position="9.2796618,155.84797"
       orientation="1,0"
       id="guide1"
       inkscape:locked="false" />
    <sodipodi:guide
       position="634.72887,330.37971"
       orientation="1,0"
       id="guide2"
       inkscape:locked="false" />
    <sodipodi:guide
       position="550.28395,403.2611"
       orientation="0,-1"
       id="guide3"
       inkscape:locked="false" />
    <sodipodi:guide
       position="463.05512,31.182443"
       orientation="0,-1"
       id="guide4"
       inkscape:locked="false" />
    <sodipodi:guide
       position="328.50003,259.41626"
       orientation="1,0"
       id="guide5"
       inkscape:locked="false" />
  </sodipodi:namedview>
  <defs
     id="defs21" />
  <g
     id="svg"
     fill="#000000"
     stroke="none"
     stroke-linecap="round"
     transform="matrix(0.1,0,0,0.1,-19.366044,-14.500645)"
     style="display:inline">
    <path
       d="m 4268.5718,-877.48562 c 13.0113,-0.86765 28.6249,-1.73529 43.371,-3.47057 45.1058,-4.3382 69.3935,-3.47056 69.3935,1.73528 0,1.73529 0.8674,3.47056 1.7348,5.20584 1.7349,4.3382 6.072,7.80877 10.4091,10.41169 6.9393,4.3382 17.3483,20.82336 22.5528,37.30852 7.8068,22.55865 7.8068,38.17618 0,60.73482 -5.2045,16.48517 -17.3483,34.70561 -26.0225,39.04382 -8.6742,5.20583 -52.0451,8.67639 -95.4161,8.67639 -78.9351,0 -79.8025,0 -109.2948,29.49977 l -30.3596,30.36741 2.6022,167.45456 c 2.6023,158.77816 3.4697,168.32221 21.6855,187.41029 18.2158,18.22045 24.2877,19.08809 182.158,19.08809 118.8363,0 177.8208,-3.47056 214.2524,-13.01461 28.6248,-7.80875 78.0677,-27.76448 110.1622,-44.24964 39.0338,-20.82337 78.9351,-51.19078 114.4992,-90.23459 37.2991,-39.0438 65.0565,-78.95526 84.1397,-121.46963 26.0225,-57.26425 29.4922,-74.61706 32.9619,-157.04289 3.4697,-77.21998 0.8674,-103.24918 -13.8787,-152.70468 -10.409,-32.97033 -33.8293,-81.55818 -52.9125,-108.45503 -19.0833,-27.76445 -58.1171,-67.67592 -87.6094,-89.36692 -28.6248,-22.5587 -50.3102,-43.3821 -48.5754,-45.985 1.7348,-3.4705 32.9619,-33.8379 68.5261,-66.8082 54.6474,-52.0585 68.5261,-70.2788 92.8138,-129.2784 22.5529,-54.6614 29.4922,-84.1611 32.0945,-143.1607 2.6022,-60.7348 -0.8674,-87.6316 -17.3484,-144.0282 -13.8787,-45.985 -33.8293,-86.764 -58.9845,-121.4697 -20.818,-28.632 -64.1889,-72.8818 -96.2835,-97.1756 -39.0338,-30.3674 -81.5373,-53.7938 -125.7757,-69.4113 -65.0564,-23.4263 -73.7306,-24.2939 -239.4076,-24.2939 h -172.6163 l -19.1791,0.5227 c -31.9769,0.8713 -22.457,50.668 -22.457,221.5932 v 174.3957 l 25.1552,25.1616 c 21.8292,21.8348 28.6248,25.1615 107.5599,25.1615 66.7912,0 85.8744,2.6029 101.488,15.6176 13.8787,11.2793 20.818,27.7645 23.4203,58.9995 3.4697,33.8379 0.8674,46.8525 -13.0113,64.2053 -16.481,20.8234 -22.5529,21.691 -106.6925,22.5587 -88.4767,0 -88.4767,0.8677 -112.7644,27.7644 l -25.1552,27.7646 v 154.4399 154.43996 l 26.0226,23.42629 c 14.7461,13.0146 33.8293,25.16156 43.3709,27.76448 6.0719,1.73528 22.5529,1.73528 43.3709,0.86765 z"
       fill="#000002"
       id="path6"
       style="fill:#ffffff;stroke-width:0.867529" />
    <path
       id="path1"
       style="display:inline;fill:#ffffff;stroke-width:0.954573"
       d="m 4153.404,-211.49222 c -57.7949,-0.17737 -90.5508,4.38282 -150.5131,18.57252 -52.0156,11.35174 -127.2136,36.03216 -167.6702,54.95166 -40.4566,18.91959 -111.6858,64.179992 -157.9219,99.181142 -57.795,45.4070258 -104.0706,91.855668 -149.3434,151.452298 -44.3095,57.70475 -77.0941,114.40356 -100.2121,170.21635 -18.3019,46.35291 -41.4369,123.09744 -50.1061,169.45045 -11.5591,61.48865 -14.3812,110.51906 -10.5282,177.68361 3.8529,62.43457 15.4387,122.15321 34.7039,185.5338 18.3018,59.59664 47.1967,122.05085 80.9105,176.91762 37.5668,60.54267 76.9954,107.74767 140.5701,167.34447 72.2437,67.1644 108.8692,92.8224 196.525,137.2834 78.9866,39.7312 130.0029,58.5459 191.6509,70.8437 60.6846,11.3517 121.3932,15.1148 212.9021,14.1688 111.737,-2.8379 137.7917,-6.6142 214.8516,-31.2097 48.1627,-16.0815 126.125,-50.089 173.3242,-75.6303 61.6481,-34.0552 109.7496,-71.0082 173.3242,-132.4968 74.1703,-71.8944 96.4786,-101.1502 142.7146,-185.34246 39.4932,-74.73231 58.6632,-124.84518 73.1121,-189.17189 12.5221,-59.59636 19.3014,-123.95594 19.3014,-193.95829 0,-85.13812 -4.9455,-122.89814 -27.1,-200.4685 -14.4489,-54.86671 -44.1682,-129.77611 -69.2128,-174.23715 -30.8241,-55.8127 -67.4075,-102.972168 -128.0923,-163.514863 -60.6847,-60.542595 -110.8962,-99.42161 -172.5443,-135.368841 -53.9419,-31.217326 -122.181,-60.517436 -181.9025,-77.545066 -77.0601,-22.7035 -119.5594,-29.34031 -220.7008,-33.12422 -26.7302,-0.94599 -48.7779,-1.47261 -68.0429,-1.53174 z m 30.2197,507.58535 c 39.4933,0 91.5332,6.61231 115.6144,15.12611 25.0445,7.56774 64.4445,30.288 89.4892,49.20759 31.7871,24.59551 54.8565,53.95427 77.0112,98.41531 24.0813,50.13692 30.8045,74.83576 30.8045,120.24281 0,33.10926 -7.536,80.38654 -18.1317,109.71196 -11.5592,31.21722 -35.6246,69.08987 -63.5588,98.41518 -32.7505,34.05527 -63.678,54.77342 -106.0611,71.80106 -40.4565,15.13567 -79.9857,23.74219 -116.5892,23.74219 -32.7506,0 -76.0286,-8.56112 -107.8159,-19.91285 -30.8239,-11.35164 -75.1907,-39.73838 -102.1618,-64.33371 -30.824,-27.43343 -56.897,-61.47648 -70.3824,-94.5859 -15.4121,-36.89308 -22.0311,-70.0603 -22.0311,-116.41337 0,-38.78507 6.7561,-81.3211 17.3519,-108.75459 9.6325,-25.54136 32.7792,-62.47761 51.081,-83.28916 18.3017,-20.81157 59.6745,-51.9014 93.3882,-68.92903 52.9789,-26.48742 71.3069,-30.4436 131.9916,-30.4436 z" />
    <path
       d="m 5486.2442,1353.8259 c 16.225,4.5305 39.0025,2.5169 57.8199,-0.8115 24.3012,-2.4345 50.2782,-25.1559 193.5712,-161.485 115.64,-110.3617 175.9738,-162.2966 188.5434,-162.2966 11.7316,0 72.0655,50.3119 181.0017,152.5587 90.5009,83.5827 172.6219,158.2392 184.3536,166.354 13.4074,8.9263 31.0048,12.9837 53.63,10.5493 29.329,-3.246 46.9264,-16.2297 158.3765,-119.288 69.5516,-63.2957 132.3993,-128.2142 139.1031,-142.821 9.2177,-18.6641 11.7316,-38.1396 8.3797,-58.4267 -115.5522,-120.62587 -264.915,-270.71567 -377.9248,-390.32318 h -332.6743 c -347.3815,0 -342.9531,-3.4981 -348.0006,3.69724 -126.3194,128.46321 -243.5603,241.64781 -391.0894,383.38004 -2.5139,14.6066 -1.676,38.9511 3.3519,53.5578 4.6582,12.9693 222.4012,252.773 281.5581,265.3549 z"
       fill="#000002"
       id="path13"
       style="display:inline;fill:#ffffff;stroke-width:0.824621" />
    <path
       style="display:inline;fill:#ffffff;fill-rule:evenodd;stroke-width:6.94376;paint-order:stroke fill markers"
       id="rect21"
       width="588.55396"
       height="1236.8164"
       x="3647.8977"
       y="4188.1162"
       d="m 5364.9378,-1903.715 h 479.5373 c 20.7782,0 37.5058,16.1507 37.5058,36.2124 v 1052.74687 c 0,20.06168 -16.7276,36.21243 -37.5058,36.21243 h -479.5373 c -20.7781,0 -37.5057,-16.15075 -37.5057,-36.21243 V -1867.5026 c 0,-20.0617 16.7276,-36.2124 37.5057,-36.2124 z"
       ry="39.805584" />
    <path
       style="display:inline;fill:#ffffff;fill-rule:evenodd;stroke-width:7.97286;paint-order:stroke fill markers"
       id="rect21-4"
       width="588.55396"
       height="1236.8164"
       x="3647.8977"
       y="4188.1162"
       d="m 3591.2078,-1902.4713 h 441.4666 c 19.1285,0 34.5281,23.129 34.5281,51.8587 v 1507.60629 c 0,28.72972 -15.3996,51.85871 -34.5281,51.85871 h -441.4666 c -19.1285,0 -34.5281,-23.12899 -34.5281,-51.85871 V -1850.6126 c 0,-28.7297 15.3996,-51.8587 34.5281,-51.8587 z"
       ry="39.805584" />
    <path
       style="display:inline;fill:#ffffff;fill-rule:evenodd;stroke-width:6.94376;paint-order:stroke fill markers"
       id="rect21-7"
       width="1219.7252"
       height="541.0072"
       x="3647.8977"
       y="4188.1162"
       d="m 5365.3965,-712.66931 h 1074.241 c 20.7781,0 37.5057,16.15075 37.5057,36.21244 v 419.74679 c 0,20.06168 -16.7276,36.21243 -37.5057,36.21243 h -1074.241 c -20.7782,0 -37.5057,-16.15075 -37.5057,-36.21243 v -419.74679 c 0,-20.06169 16.7275,-36.21244 37.5057,-36.21244 z"
       ry="39.805584" />
    <path
       d="m 5486.3165,-148.20528 c 16.2251,-4.53058 39.0026,-2.51697 57.8201,0.81148 24.3011,2.43446 50.2782,25.15597 193.5712,161.48508 115.6399,110.36165 175.9738,162.29654 188.5433,162.29654 11.7316,0 72.0655,-50.31193 181.0017,-152.558749 90.5008,-83.582727 172.6219,-158.239141 184.3535,-166.353971 13.4076,-8.92631 31.0049,-12.98372 53.6301,-10.54927 29.329,3.24593 46.9263,16.22966 158.3765,119.287964 69.5515,63.295654 132.3994,128.21427 139.1031,142.820956 9.2176,18.6641 11.7316,38.1397 8.3797,58.42676 -115.5522,120.62586 -264.915,270.71567 -377.9247,390.32325 h -332.6744 c -347.3814,0 -342.9531,3.49806 -348.0006,-3.69728 -126.3194,-128.46321 -243.5603,-241.64785 -391.0894,-383.38004 -2.514,-14.60668 -1.676,-38.95117 3.3518,-53.55786 4.6583,-12.96928 222.4013,-252.77298 281.5581,-265.35486 z"
       fill="#000002"
       id="path13-2"
       style="display:inline;fill:#ffffff;stroke-width:0.824621" />
  </g>
</svg>
