<?xml version="1.0" encoding="UTF-8" standalone="no"?>
<svg
   version="1.1"
   width="62"
   height="18"
   viewBox="0 0 621.73932 186.53487"
   preserveAspectRatio="xMidYMid"
   id="svg21"
   sodipodi:docname="blox-logo-white.svg"
   inkscape:version="1.3.2 (091e20e, 2023-11-25)"
   xmlns:inkscape="http://www.inkscape.org/namespaces/inkscape"
   xmlns:sodipodi="http://sodipodi.sourceforge.net/DTD/sodipodi-0.dtd"
   xmlns="http://www.w3.org/2000/svg"
   xmlns:svg="http://www.w3.org/2000/svg">
  <sodipodi:namedview
     id="namedview1"
     pagecolor="#ffffff"
     bordercolor="#666666"
     borderopacity="1.0"
     inkscape:showpageshadow="2"
     inkscape:pageopacity="0.0"
     inkscape:pagecheckerboard="0"
     inkscape:deskcolor="#d1d1d1"
     inkscape:zoom="10.806486"
     inkscape:cx="30.352143"
     inkscape:cy="12.353692"
     inkscape:window-width="1440"
     inkscape:window-height="900"
     inkscape:window-x="0"
     inkscape:window-y="0"
     inkscape:window-maximized="0"
     inkscape:current-layer="svg" />
  <defs
     id="defs21" />
  <g
     id="svg"
     fill="#000000"
     stroke="none"
     stroke-linecap="round"
     transform="matrix(0.1,0,0,0.1,-19.366044,-14.500645)"
     style="display:inline">
    <path
       d="m 1014.3622,1326.3552 c 15,-1 33,-2 50,-4 52,-5 80,-4 80,2 0,2 1,4 2,6 2,5 7,9 12,12 8,5 20,24 26,43 9,26 9,44 0,70 -6,19 -20,40 -30,45 -10,6 -60,10 -110,10 -91,0 -92,0 -126,34 l -35,35 3,193 c 3,183 4,194 25,216 21,21 28,22 210,22 137,0 205,-4 247,-15 33,-9 90,-32 127,-51 45,-24 91,-59 132,-104 43,-45 75,-91 97,-140 30,-66 34,-86 38,-181 4,-89 1,-119 -16,-176 -12,-38 -39,-94 -61,-125 -22,-32 -67,-78 -101,-103 -33,-26 -58,-50 -56,-53 2,-4 38,-39 79,-77.00004 63,-60 79,-81 107,-149.00005 26,-63 34,-97 37,-165 3,-70 -1,-101 -20,-166 -16,-53 -39,-100 -68,-140 -24,-33 -74,-84 -111,-112 -45,-35 -94,-62 -145,-80 -75,-27 -85,-28 -276,-28 h -199 l -22.1105,0.6024 c -36.8645,1.0043 -25.8895,58.3976 -25.8895,255.3976 v 201 l 29,29 c 25.1658,25.1658 33,29 124,29 77,0 99,3 117,18 16,13 24,32 27,68 4,39 1,54 -15,74 -19,24 -26,25 -123,26 -102,0 -102,1 -130,32 l -29,32.00005 v 178.00004 178 l 30,27 c 17,15 39,29 50,32 7,2 26,2 50,1 z"
       fill="#000002"
       id="path6"
       style="fill:#ffffff;fill-opacity:1" />
    <path
       id="path1"
       style="display:inline;fill:#ffffff;fill-opacity:1"
       d="M 3853.7036 253.69702 C 3793.7037 253.50952 3759.6982 258.33015 3697.4483 273.33013 C 3643.4483 285.33012 3565.3814 311.4199 3523.3814 331.41988 C 3481.3815 351.41986 3407.4347 399.26482 3359.4348 436.26478 C 3299.4348 484.26473 3251.3938 533.36584 3204.3938 596.36578 C 3158.3939 657.36572 3124.3585 717.30236 3100.3586 776.3023 C 3081.3586 825.30226 3057.3409 906.42926 3048.3409 955.42921 C 3036.3409 1020.4292 3033.4111 1072.2595 3037.4111 1143.2595 C 3041.4111 1209.2594 3053.4389 1272.3883 3073.4389 1339.3883 C 3092.4389 1402.3882 3122.4363 1468.4089 3157.4363 1526.4089 C 3196.4362 1590.4088 3237.3691 1640.3094 3303.3691 1703.3094 C 3378.369 1774.3093 3416.3917 1801.4326 3507.3916 1848.4325 C 3589.3915 1890.4325 3642.3541 1910.3217 3706.354 1923.3217 C 3769.3539 1935.3217 3832.3785 1939.2996 3927.3784 1938.2996 C 4043.3783 1935.2996 4070.4269 1931.3078 4150.4268 1905.3078 C 4200.4268 1888.3079 4281.3634 1852.3585 4330.3633 1825.3585 C 4394.3633 1789.3586 4444.2999 1750.2954 4510.2999 1685.2955 C 4587.2998 1609.2955 4610.4591 1578.369 4658.4591 1489.3691 C 4699.459 1410.3692 4719.3603 1357.3946 4734.3603 1289.3946 C 4747.3603 1226.3947 4754.3982 1158.36 4754.3982 1084.3601 C 4754.3982 994.36016 4749.2641 954.44383 4726.2642 872.44387 C 4711.2642 814.44392 4680.411 735.25683 4654.411 688.25687 C 4622.411 629.25693 4584.432 579.4044 4521.432 515.40447 C 4458.4321 451.40453 4406.3051 410.3053 4342.3051 372.30534 C 4286.3052 339.30538 4215.4628 308.33199 4153.4629 290.33201 C 4073.4629 266.33203 4029.3422 259.31624 3924.3423 255.31624 C 3896.5924 254.31624 3873.7036 253.75952 3853.7036 253.69702 z M 3885.0761 790.26813 C 3926.0761 790.26813 3980.1013 797.258 4005.1013 806.25799 C 4031.1012 814.25798 4072.0044 838.27566 4098.0044 858.27564 C 4131.0043 884.27561 4154.9537 915.31097 4177.9537 962.31093 C 4202.9536 1015.3109 4209.9334 1041.4202 4209.9334 1089.4202 C 4209.9334 1124.4202 4202.1099 1174.3973 4191.1099 1205.3973 C 4179.1099 1238.3972 4154.1264 1278.4326 4125.1264 1309.4326 C 4091.1264 1345.4325 4059.019 1367.3338 4015.019 1385.3338 C 3973.0191 1401.3338 3931.9818 1410.4318 3893.9819 1410.4318 C 3859.9819 1410.4318 3815.0528 1401.3819 3782.0528 1389.3819 C 3750.0529 1377.3819 3703.9935 1347.3743 3675.9935 1321.3744 C 3643.9935 1292.3744 3616.9259 1256.3871 3602.9259 1221.3871 C 3586.9259 1182.3872 3580.0544 1147.3259 3580.0544 1098.3259 C 3580.0544 1057.326 3587.0683 1012.3609 3598.0682 983.36087 C 3608.0682 956.36089 3632.0979 917.31542 3651.0979 895.31544 C 3670.0979 873.31541 3713.0491 840.45024 3748.0491 822.45025 C 3803.049 794.45028 3822.0762 790.26813 3885.0761 790.26813 z " />
    <path
       d="m 5011.4041,2003.3133 c 19.3623,5.5831 46.544,3.1017 69,-1 29,-3 60,-31 231,-199 138,-136 210,-200 225,-200 14,0 86,62 216,188 108,103 206,195 220,205 16,11 37,16 64,13 35,-4 56,-20 189,-147 83,-78 158,-158 166,-176 11,-23 14,-47 10,-72 -137.8953,-148.6487 -316.1388,-333.6062 -451,-481 h -397 c -414.5509,0 -409.2663,-4.3107 -415.2898,4.5562 -150.7444,158.3067 -290.6549,297.7855 -466.7102,472.4438 -3,18 -2,48 4,66 5.559,15.9822 265.4046,311.4952 336,327 z"
       fill="#000002"
       id="path13"
       style="display:inline;fill:#ffffff;fill-opacity:1" />
    <path
       style="display:inline;fill:#ffffff;fill-rule:evenodd;stroke-width:7.5;paint-order:stroke fill markers;fill-opacity:1"
       id="rect21"
       width="588.55396"
       height="1236.8164"
       x="3647.8977"
       y="4188.1162"
       d="m 3687.7033,4188.1162 h 508.9428 c 22.0523,0 39.8056,17.7533 39.8056,39.8056 V 5385.127 c 0,22.0523 -17.7533,39.8056 -39.8056,39.8056 h -508.9428 c -22.0523,0 -39.8056,-17.7533 -39.8056,-39.8056 V 4227.9218 c 0,-22.0523 17.7533,-39.8056 39.8056,-39.8056 z"
       ry="39.805584"
       transform="translate(-1815.6378,-4039.6448)" />
    <path
       style="display:inline;fill:#ffffff;fill-rule:evenodd;stroke-width:7.5;paint-order:stroke fill markers;fill-opacity:1"
       id="rect21-4"
       width="588.55396"
       height="1236.8164"
       x="3647.8977"
       y="4188.1162"
       d="m 3687.7033,4188.1162 h 508.9428 c 22.0523,0 39.8056,17.7533 39.8056,39.8056 V 5385.127 c 0,22.0523 -17.7533,39.8056 -39.8056,39.8056 h -508.9428 c -22.0523,0 -39.8056,-17.7533 -39.8056,-39.8056 V 4227.9218 c 0,-22.0523 17.7533,-39.8056 39.8056,-39.8056 z"
       ry="39.805584"
       transform="matrix(0.99999998,0,0,1.5015434,-3454.2372,-6143.6318)" />
    <path
       style="display:inline;fill:#ffffff;fill-rule:evenodd;stroke-width:7.5;paint-order:stroke fill markers;fill-opacity:1"
       id="rect21-7"
       width="1219.7252"
       height="541.0072"
       x="3647.8977"
       y="4188.1162"
       d="m 3687.7033,4188.1162 h 1140.114 c 22.0523,0 39.8056,17.7533 39.8056,39.8056 v 461.396 c 0,22.0523 -17.7533,39.8056 -39.8056,39.8056 h -1140.114 c -22.0523,0 -39.8056,-17.7533 -39.8056,-39.8056 v -461.396 c 0,-22.0523 17.7533,-39.8056 39.8056,-39.8056 z"
       ry="39.805584"
       transform="translate(-1815.151,-2719.8769)" />
    <path
       d="m 5011.4905,152.34211 c 19.3623,-5.5831 46.544,-3.1017 69,1 29,3 60,31 231,199 138,136 210,200 225,200 14,0 86,-62 216,-188 108,-103 206,-195 220,-205 16,-11 37,-16 64,-13 35,4 56,20 189,147 83,78 158,158 166,176 11,23 14,47 10,72 -137.8953,148.6487 -316.1388,333.6062 -451,481.00009 h -397 c -414.5509,0 -409.2663,4.3107 -415.2898,-4.5562 -150.7444,-158.30679 -290.6549,-297.78559 -466.7102,-472.44389 -3,-18 -2,-48 4,-66 5.559,-15.9822 265.4046,-311.4952 336,-327 z"
       fill="#000002"
       id="path13-2"
       style="display:inline;fill:#ffffff;fill-opacity:1" />
  </g>
</svg>
