<?xml version="1.0" encoding="UTF-8" standalone="no"?>
<svg
   version="1.1"
   width="62"
   height="18"
   viewBox="0 0 621.73932 186.53487"
   preserveAspectRatio="xMidYMid"
   id="svg21"
   xmlns="http://www.w3.org/2000/svg"
   xmlns:svg="http://www.w3.org/2000/svg">
  <defs
     id="defs21" />
  <g
     id="svg"
     fill="#000000"
     stroke="none"
     stroke-linecap="round"
     transform="matrix(0.1,0,0,0.1,-19.366044,-14.500645)"
     style="display:inline">
    <path
       d="m 1014.3622,1326.3552 c 15,-1 33,-2 50,-4 52,-5 80,-4 80,2 0,2 1,4 2,6 2,5 7,9 12,12 8,5 20,24 26,43 9,26 9,44 0,70 -6,19 -20,40 -30,45 -10,6 -60,10 -110,10 -91,0 -92,0 -126,34 l -35,35 3,193 c 3,183 4,194 25,216 21,21 28,22 210,22 137,0 205,-4 247,-15 33,-9 90,-32 127,-51 45,-24 91,-59 132,-104 43,-45 75,-91 97,-140 30,-66 34,-86 38,-181 4,-89 1,-119 -16,-176 -12,-38 -39,-94 -61,-125 -22,-32 -67,-78 -101,-103 -33,-26 -58,-50 -56,-53 2,-4 38,-39 79,-77.00004 63,-60 79,-81 107,-149.00005 26,-63 34,-97 37,-165 3,-70 -1,-101 -20,-166 -16,-53 -39,-100 -68,-140 -24,-33 -74,-84 -111,-112 -45,-35 -94,-62 -145,-80 -75,-27 -85,-28 -276,-28 h -199 l -22.1105,0.6024 c -36.8645,1.0043 -25.8895,58.3976 -25.8895,255.3976 v 201 l 29,29 c 25.1658,25.1658 33,29 124,29 77,0 99,3 117,18 16,13 24,32 27,68 4,39 1,54 -15,74 -19,24 -26,25 -123,26 -102,0 -102,1 -130,32 l -29,32.00005 v 178.00004 178 l 30,27 c 17,15 39,29 50,32 7,2 26,2 50,1 z"
       fill="#000002"
       id="path6" />
    <path
       d="m 3697.3622,273.35511 c -54,12 -132,38 -174,58 -42,20 -116,68 -164,105 -60,48 -108,97 -155,160 -46,61 -80,121 -104,180 -19,49 -43,130.00005 -52,179.00005 -12,65.00004 -15,117.00004 -11,188.00004 4,66 16,129 36,196 19,63 49,129 84,187 39,64 80,114 146,177 75,71 113,98 204,145 82,42 135,62 199,75 63,12 126,16 221,15 116,-3 143,-7 223,-33 50,-17 131,-53 180,-80 64,-36 114,-75 180,-140 77,-76 100,-107 148,-196 41,-79 61,-132 76,-200 13,-63 20,-131 20,-205 0,-90.00004 -5,-130.00004 -28,-212.00009 -15,-58 -46,-137 -72,-184 -32,-59 -70,-109 -133,-173 -63,-64 -115,-105 -179,-143 -56,-33 -127,-64 -189,-82 -80,-24 -124,-31 -229,-35 -111,-4 -144,-2 -227,18 z"
       fill="#000002"
       id="path10"
       style="display:inline" />
    <path
       d="m 3752.3622,822.35511 c -35,18 -78,51 -97,73.00005 -19,22 -43,61 -53,88 -11,29.00004 -18,74.00004 -18,115.00004 0,49 7,84 23,123 14,35 41,71 73,100 28,26 74,56 106,68 33,12 78,21 112,21 38,0 79,-9 121,-25 44,-18 76,-40 110,-76 29,-31 54,-71 66,-104 11,-31 19,-81 19,-116 0,-48 -7,-74 -32,-127.00004 -23,-47 -47,-78.00005 -80,-104.00005 -26,-20 -67,-44 -93,-52 -25,-9 -79,-16 -120,-16 -63,0 -82,4 -137,32 z"
       fill="#e1e1e1"
       id="path12"
       style="display:inline;fill:#ffffff" />
    <path
       d="m 5019.3622,1995.3552 c 19.3623,5.5831 46.544,3.1017 69,-1 29,-3 60,-31 231,-199 138,-136 210,-200 225,-200 14,0 86,62 216,188 108,103 206,195 220,205 16,11 37,16 64,13 35,-4 56,-20 189,-147 83,-78 158,-158 166,-176 11,-23 14,-47 10,-72 -137.8953,-148.6487 -316.1388,-333.6062 -451,-481 h -397 c -414.5509,0 -409.2663,-4.3107 -415.2898,4.5562 -150.7444,158.3067 -290.6549,297.7855 -466.7102,472.4438 -3,18 -2,48 4,66 5.559,15.9822 265.4046,311.4952 336,327 z"
       fill="#000002"
       id="path13"
       style="display:inline" />
    <path
       style="display:inline;fill:#000000;fill-rule:evenodd;stroke-width:7.5;paint-order:stroke fill markers"
       id="rect21"
       width="588.55396"
       height="1236.8164"
       x="3647.8977"
       y="4188.1162"
       d="m 3687.7033,4188.1162 h 508.9428 c 22.0523,0 39.8056,17.7533 39.8056,39.8056 V 5385.127 c 0,22.0523 -17.7533,39.8056 -39.8056,39.8056 h -508.9428 c -22.0523,0 -39.8056,-17.7533 -39.8056,-39.8056 V 4227.9218 c 0,-22.0523 17.7533,-39.8056 39.8056,-39.8056 z"
       ry="39.805584"
       transform="translate(-1815.6378,-4039.6448)" />
    <path
       style="display:inline;fill:#000000;fill-rule:evenodd;stroke-width:7.5;paint-order:stroke fill markers"
       id="rect21-4"
       width="588.55396"
       height="1236.8164"
       x="3647.8977"
       y="4188.1162"
       d="m 3687.7033,4188.1162 h 508.9428 c 22.0523,0 39.8056,17.7533 39.8056,39.8056 V 5385.127 c 0,22.0523 -17.7533,39.8056 -39.8056,39.8056 h -508.9428 c -22.0523,0 -39.8056,-17.7533 -39.8056,-39.8056 V 4227.9218 c 0,-22.0523 17.7533,-39.8056 39.8056,-39.8056 z"
       ry="39.805584"
       transform="matrix(0.99999998,0,0,1.5015434,-3454.2372,-6143.6318)" />
    <path
       style="display:inline;fill:#000000;fill-rule:evenodd;stroke-width:7.5;paint-order:stroke fill markers"
       id="rect21-7"
       width="1219.7252"
       height="541.0072"
       x="3647.8977"
       y="4188.1162"
       d="m 3687.7033,4188.1162 h 1140.114 c 22.0523,0 39.8056,17.7533 39.8056,39.8056 v 461.396 c 0,22.0523 -17.7533,39.8056 -39.8056,39.8056 h -1140.114 c -22.0523,0 -39.8056,-17.7533 -39.8056,-39.8056 v -461.396 c 0,-22.0523 17.7533,-39.8056 39.8056,-39.8056 z"
       ry="39.805584"
       transform="translate(-1815.151,-2719.8769)" />
    <path
       d="m 5011.4905,152.34211 c 19.3623,-5.5831 46.544,-3.1017 69,1 29,3 60,31 231,199 138,136 210,200 225,200 14,0 86,-62 216,-188 108,-103 206,-195 220,-205 16,-11 37,-16 64,-13 35,4 56,20 189,147 83,78 158,158 166,176 11,23 14,47 10,72 -137.8953,148.6487 -316.1388,333.6062 -451,481.00009 h -397 c -414.5509,0 -409.2663,4.3107 -415.2898,-4.5562 -150.7444,-158.30679 -290.6549,-297.78559 -466.7102,-472.44389 -3,-18 -2,-48 4,-66 5.559,-15.9822 265.4046,-311.4952 336,-327 z"
       fill="#000002"
       id="path13-2"
       style="display:inline" />
  </g>
</svg>
